# Blender v3.3.1 OBJ File: 'grass.blend'
# www.blender.org
mtllib grass.mtl
o Plane
v 0.000024 0.647765 0.164083
v -0.000673 0.000057 0.111583
v -0.012967 0.000050 0.110266
v -0.024165 0.478434 0.213431
v 0.026054 -0.000082 0.136564
v 0.012456 -0.000080 0.137994
v 0.020152 0.356177 0.174731
v -0.119517 0.647563 0.216559
v -0.055388 0.000004 0.104544
v -0.066013 0.000003 0.097210
v -0.103119 0.478450 0.144863
v -0.027767 0.000112 0.104468
v -0.044173 0.000010 0.110687
v -0.070079 0.356218 0.169314
v -0.205761 0.647573 0.129486
v -0.079842 0.000028 0.055000
v -0.081592 0.000019 0.042497
v -0.229164 0.478390 0.110612
v -0.054872 0.000217 0.064143
v -0.075268 0.000073 0.065182
v -0.183031 0.356012 0.146150
v -0.237933 0.647586 0.013556
v -0.094218 0.000001 0.008194
v -0.079839 0.000003 -0.002797
v -0.196303 0.478401 -0.010625
v -0.092237 0.000062 0.031195
v -0.093464 0.000032 0.019206
v -0.232452 0.356012 0.039677
v -0.150881 0.647609 -0.072001
v -0.077144 0.000041 -0.037097
v -0.070126 0.000069 -0.046623
v -0.162303 0.478460 -0.101682
v -0.074432 -0.000000 -0.012857
v -0.070270 0.000013 -0.022875
v -0.195238 0.356021 -0.068194
v -0.132966 0.647587 -0.187145
v -0.051926 0.000024 -0.082440
v -0.040947 0.000035 -0.088465
v -0.098144 0.478458 -0.177315
v -0.068067 0.000001 -0.063799
v -0.059056 0.000011 -0.072042
v -0.126930 0.356023 -0.141335
v -0.026306 0.647582 -0.232133
v -0.000772 0.000067 -0.094353
v 0.011547 0.000190 -0.080860
v -0.000022 0.478620 -0.170584
v -0.023296 0.000036 -0.086244
v -0.012307 0.000034 -0.093114
v -0.039081 0.356082 -0.168112
v 0.086094 0.647600 -0.208229
v 0.045378 0.000096 -0.075594
v 0.055658 0.000089 -0.069923
v 0.117182 0.478378 -0.212287
v 0.021724 0.000252 -0.073227
v 0.034494 0.000161 -0.076203
v 0.072822 0.355897 -0.253493
v 0.151845 0.647652 -0.121109
v 0.105135 -0.000023 -0.063044
v 0.113859 -0.000026 -0.052716
v 0.219708 0.478358 -0.138369
v 0.087980 -0.000075 -0.084036
v 0.097428 -0.000052 -0.074590
v 0.118375 0.356309 -0.118582
v 0.174200 0.647645 -0.029440
v 0.120939 -0.000001 -0.005071
v 0.121819 0.000000 0.007971
v 0.240765 0.478400 -0.013742
v 0.116001 -0.000014 -0.030666
v 0.123798 -0.000029 -0.019149
v 0.236764 0.355966 -0.068478
v 0.200917 0.647586 0.070140
v 0.098663 0.000007 0.046694
v 0.094148 0.000014 0.057987
v 0.215541 0.478396 0.103715
v 0.103726 0.000028 0.024051
v 0.105944 0.000009 0.037076
v 0.233424 0.356014 0.052956
v 0.154253 0.647586 0.172300
v 0.072807 0.000008 0.092741
v 0.065651 0.000004 0.104475
v 0.095824 0.478468 0.134390
v 0.089415 -0.000000 0.074703
v 0.083221 0.000000 0.086009
v 0.185418 0.356021 0.165195
v 0.036388 0.647629 0.156012
v 0.026963 -0.000040 0.136434
v 0.013247 -0.000062 0.137931
v 0.018489 0.478551 0.159498
v 0.048913 -0.000000 0.113316
v 0.041405 -0.000009 0.133809
v 0.058359 0.356021 0.165628
vt 0.000000 0.000000
vt 1.000000 0.000000
vt 0.000000 1.000000
vt 0.000000 0.000000
vt 1.000000 0.000000
vt 0.000000 1.000000
vt 0.000000 0.000000
vt 1.000000 0.000000
vt 0.000000 1.000000
vt 0.000000 0.000000
vt 1.000000 0.000000
vt 0.000000 1.000000
vt 0.000000 0.000000
vt 1.000000 0.000000
vt 0.000000 1.000000
vt 0.000000 0.000000
vt 1.000000 0.000000
vt 0.000000 1.000000
vt 0.000000 0.000000
vt 1.000000 0.000000
vt 0.000000 1.000000
vt 0.000000 0.000000
vt 1.000000 0.000000
vt 0.000000 1.000000
vt 0.000000 0.000000
vt 1.000000 0.000000
vt 0.000000 1.000000
vt 0.000000 0.000000
vt 1.000000 0.000000
vt 0.000000 1.000000
vt 0.000000 0.000000
vt 1.000000 0.000000
vt 0.000000 1.000000
vt 0.000000 0.000000
vt 1.000000 0.000000
vt 0.000000 1.000000
vt 0.000000 0.000000
vt 1.000000 0.000000
vt 0.000000 1.000000
vt 0.000000 0.000000
vt 1.000000 0.000000
vt 0.000000 1.000000
vt 0.000000 0.000000
vt 1.000000 0.000000
vt 0.000000 1.000000
vt 0.000000 0.000000
vt 1.000000 0.000000
vt 0.000000 1.000000
vt 0.000000 0.000000
vt 1.000000 0.000000
vt 0.000000 1.000000
vt 0.000000 0.000000
vt 1.000000 0.000000
vt 0.000000 1.000000
vt 0.000000 0.000000
vt 1.000000 0.000000
vt 0.000000 1.000000
vt 0.000000 0.000000
vt 1.000000 0.000000
vt 0.000000 1.000000
vt 0.000000 0.000000
vt 1.000000 0.000000
vt 0.000000 1.000000
vt 0.000000 0.000000
vt 1.000000 0.000000
vt 0.000000 1.000000
vt 0.000000 0.000000
vt 1.000000 0.000000
vt 0.000000 1.000000
vt 0.000000 0.000000
vt 1.000000 0.000000
vt 0.000000 1.000000
vt 0.000000 0.000000
vt 1.000000 0.000000
vt 0.000000 1.000000
vt 0.000000 0.000000
vt 1.000000 0.000000
vt 0.000000 1.000000
vt 0.000000 0.000000
vt 1.000000 0.000000
vt 0.000000 1.000000
vt 0.000000 0.000000
vt 1.000000 0.000000
vt 0.000000 1.000000
vt 0.000000 0.000000
vt 1.000000 0.000000
vt 0.000000 1.000000
vt 0.000000 0.000000
vt 1.000000 0.000000
vt 0.000000 1.000000
vt 0.000000 0.000000
vt 1.000000 0.000000
vt 0.000000 1.000000
vt 0.000000 0.000000
vt 1.000000 0.000000
vt 0.000000 1.000000
vt 0.000000 0.000000
vt 1.000000 0.000000
vt 0.000000 1.000000
vt 0.000000 0.000000
vt 1.000000 0.000000
vt 0.000000 1.000000
vt 0.000000 0.000000
vt 1.000000 0.000000
vt 0.000000 1.000000
vt 0.000000 0.000000
vt 1.000000 0.000000
vt 0.000000 1.000000
vt 0.000000 0.000000
vt 1.000000 0.000000
vt 0.000000 1.000000
vt 0.000000 0.000000
vt 1.000000 0.000000
vt 0.000000 1.000000
vt 0.000000 0.000000
vt 1.000000 0.000000
vt 0.000000 1.000000
vn 0.8950 0.0351 -0.4447
vn 0.1040 0.2120 -0.9717
vn -0.1040 0.1042 -0.9891
vn 0.4711 0.1954 -0.8601
vn 0.5636 0.1250 -0.8165
vn -0.3523 0.1270 -0.9272
vn 0.8897 0.2191 -0.4006
vn 0.9417 0.3093 -0.1320
vn -0.0513 0.2067 -0.9771
vn 0.9739 0.2167 -0.0674
vn 0.5995 0.1588 0.7844
vn 0.9254 0.3668 -0.0956
vn 0.8976 0.0788 -0.4337
vn 0.7854 0.2180 0.5793
vn 0.8651 0.3495 0.3598
vn 0.8094 0.1911 0.5553
vn 0.4696 0.2152 0.8563
vn 0.6511 0.2627 0.7121
vn 0.1038 0.2109 0.9720
vn -0.7347 0.1078 0.6698
vn 0.5179 0.2134 0.8284
vn -0.0535 0.2036 0.9776
vn -0.4595 0.3072 0.8333
vn 0.2090 0.4181 0.8840
vn -0.8269 0.1091 0.5517
vn -0.7347 0.2737 0.6207
vn -0.7014 0.1278 0.7012
vn -0.9774 0.0729 -0.1986
vn -0.9677 0.2436 0.0652
vn -0.7837 0.3223 0.5310
vn -0.7887 0.1462 -0.5971
vn -0.8962 0.2617 -0.3584
vn -0.9317 0.3265 0.1591
vn -0.5350 0.1690 -0.8278
vn -0.8506 0.0861 -0.5187
vn -0.8255 0.3376 -0.4523
vn -0.1788 0.0323 -0.9834
vn -0.1085 0.0459 -0.9930
vn -0.9363 0.0752 -0.3430
usemtl None
s off
f 6/1/1 2/2/1 1/3/1
f 2/4/2 3/5/2 4/6/2
f 5/7/3 6/8/3 7/9/3
f 13/10/4 9/11/4 8/12/4
f 9/13/5 10/14/5 11/15/5
f 12/16/6 13/17/6 14/18/6
f 20/19/7 16/20/7 15/21/7
f 16/22/8 17/23/8 18/24/8
f 19/25/9 20/26/9 21/27/9
f 27/28/10 23/29/10 22/30/10
f 23/31/11 24/32/11 25/33/11
f 26/34/12 27/35/12 28/36/12
f 34/37/13 30/38/13 29/39/13
f 30/40/14 31/41/14 32/42/14
f 33/43/15 34/44/15 35/45/15
f 41/46/16 37/47/16 36/48/16
f 37/49/17 38/50/17 39/51/17
f 40/52/18 41/53/18 42/54/18
f 48/55/19 44/56/19 43/57/19
f 44/58/20 45/59/20 46/60/20
f 47/61/21 48/62/21 49/63/21
f 55/64/22 51/65/22 50/66/22
f 51/67/23 52/68/23 53/69/23
f 54/70/24 55/71/24 56/72/24
f 62/73/25 58/74/25 57/75/25
f 58/76/26 59/77/26 60/78/26
f 61/79/27 62/80/27 63/81/27
f 69/82/28 65/83/28 64/84/28
f 65/85/29 66/86/29 67/87/29
f 68/88/30 69/89/30 70/90/30
f 76/91/31 72/92/31 71/93/31
f 72/94/32 73/95/32 74/96/32
f 75/97/33 76/98/33 77/99/33
f 83/100/34 79/101/34 78/102/34
f 79/103/35 80/104/35 81/105/35
f 82/106/36 83/107/36 84/108/36
f 90/109/37 86/110/37 85/111/37
f 86/112/38 87/113/38 88/114/38
f 89/115/39 90/116/39 91/117/39
o Plane.001
v 0.000174 0.653801 0.183680
v 0.005027 0.000189 0.044962
v -0.002322 0.000493 0.016236
v -0.039705 0.484930 0.120110
v 0.049140 -0.000467 0.086602
v 0.024099 -0.000241 0.079410
v 0.058776 0.361758 0.192534
v -0.135686 0.654010 0.061465
v -0.015023 0.000346 0.010330
v -0.035632 0.000132 -0.001191
v -0.050785 0.485380 0.005681
v 0.010405 0.000649 0.017063
v -0.004438 0.000472 0.013751
v 0.015101 0.363548 -0.013135
v -0.124763 0.653446 -0.103393
v -0.033956 -0.000160 -0.052388
v -0.010803 -0.000039 -0.053863
v -0.021782 0.485495 -0.037666
v -0.034870 0.000173 -0.006792
v -0.024395 0.000204 -0.019661
v -0.191500 0.361892 -0.082076
v 0.061576 0.653722 -0.197569
v 0.033701 0.000097 -0.041488
v 0.072759 -0.000413 -0.066923
v 0.090886 0.484750 -0.127746
v 0.001610 0.000141 -0.044436
v 0.018415 0.000123 -0.044881
v -0.003568 0.362220 -0.171967
v 0.172466 0.653870 -0.021231
v 0.068234 0.000021 0.005069
v 0.064527 0.000024 0.022997
v -0.003026 0.485713 -0.000437
v 0.100426 -0.000626 -0.049394
v 0.091954 -0.000313 -0.020321
v 0.079111 0.362814 -0.037344
v 0.090660 0.653874 0.148369
v 0.046459 -0.000382 0.088121
v 0.019859 -0.000228 0.079747
v 0.018550 0.485199 0.079608
v 0.068614 -0.000126 0.039402
v 0.047650 0.000038 0.045130
v 0.119788 0.362331 0.102079
vt 0.000000 0.000000
vt 1.000000 0.000000
vt 0.000000 1.000000
vt 0.000000 0.000000
vt 1.000000 0.000000
vt 0.000000 1.000000
vt 0.000000 0.000000
vt 1.000000 0.000000
vt 0.000000 1.000000
vt 0.000000 0.000000
vt 1.000000 0.000000
vt 0.000000 1.000000
vt 0.000000 0.000000
vt 1.000000 0.000000
vt 0.000000 1.000000
vt 0.000000 0.000000
vt 1.000000 0.000000
vt 0.000000 1.000000
vt 0.000000 0.000000
vt 1.000000 0.000000
vt 0.000000 1.000000
vt 0.000000 0.000000
vt 1.000000 0.000000
vt 0.000000 1.000000
vt 0.000000 0.000000
vt 1.000000 0.000000
vt 0.000000 1.000000
vt 0.000000 0.000000
vt 1.000000 0.000000
vt 0.000000 1.000000
vt 0.000000 0.000000
vt 1.000000 0.000000
vt 0.000000 1.000000
vt 0.000000 0.000000
vt 1.000000 0.000000
vt 0.000000 1.000000
vt 0.000000 0.000000
vt 1.000000 0.000000
vt 0.000000 1.000000
vt 0.000000 0.000000
vt 1.000000 0.000000
vt 0.000000 1.000000
vt 0.000000 0.000000
vt 1.000000 0.000000
vt 0.000000 1.000000
vt 0.000000 0.000000
vt 1.000000 0.000000
vt 0.000000 1.000000
vt 0.000000 0.000000
vt 1.000000 0.000000
vt 0.000000 1.000000
vt 0.000000 0.000000
vt 1.000000 0.000000
vt 0.000000 1.000000
vn 0.8703 0.1084 -0.4805
vn 0.9613 0.1266 -0.2446
vn 0.2685 0.2638 -0.9265
vn 0.3035 0.1299 -0.9439
vn 0.4876 0.0276 -0.8727
vn 0.2179 -0.0837 -0.9724
vn 0.9536 0.1107 -0.2798
vn 0.0637 -0.0318 0.9975
vn 0.7022 0.4232 0.5725
vn -0.2102 0.2355 0.9489
vn 0.5445 0.0843 0.8345
vn 0.0253 0.3324 0.9428
vn -0.7273 0.0886 -0.6806
vn -0.9690 -0.1444 -0.2004
vn -0.9591 -0.0470 -0.2790
vn -0.9972 0.0698 -0.0269
vn 0.3003 0.0005 -0.9539
vn -0.2568 0.1998 -0.9456
usemtl None
s off
f 97/118/40 93/119/40 92/120/40
f 93/121/41 94/122/41 95/123/41
f 96/124/42 97/125/42 98/126/42
f 104/127/43 100/128/43 99/129/43
f 100/130/44 101/131/44 102/132/44
f 103/133/45 104/134/45 105/135/45
f 111/136/46 107/137/46 106/138/46
f 107/139/47 108/140/47 109/141/47
f 110/142/48 111/143/48 112/144/48
f 118/145/49 114/146/49 113/147/49
f 114/148/50 115/149/50 116/150/50
f 117/151/51 118/152/51 119/153/51
f 125/154/52 121/155/52 120/156/52
f 121/157/53 122/158/53 123/159/53
f 124/160/54 125/161/54 126/162/54
f 132/163/55 128/164/55 127/165/55
f 128/166/56 129/167/56 130/168/56
f 131/169/57 132/170/57 133/171/57
