# Blender v2.93.1 OBJ File: 'rock3.blend'
# www.blender.org
mtllib rock3.mtl
o Cylinder
v -1.630735 0.000000 -1.630735
v 0.823312 5.517408 -0.189062
v -0.724272 5.676656 -0.309014
v 1.951778 2.452170 -1.951778
v 1.608317 4.467931 -1.487780
v -1.971494 2.508580 -1.971494
v -1.146439 5.001938 -1.349669
v -0.428214 4.298871 -2.177025
v -1.017105 1.818173 2.455510
v -1.895899 2.187793 1.895899
v -1.649076 4.601241 1.328186
v 1.395356 4.322516 1.513718
v -0.151858 3.849514 2.316736
v -2.102225 3.721232 -1.304274
v -2.118197 2.597045 -1.828763
v -2.160613 3.906751 1.264390
v -2.454678 3.416203 0.339443
v 1.759389 0.982679 -1.759389
v -0.904649 0.298640 2.184016
v -0.963192 0.000000 2.076773
v -0.126579 2.350169 2.761534
v 0.083185 2.620003 2.792001
v 1.732567 0.000000 0.935157
v -1.964865 0.000000 -1.130674
v -2.251886 2.008049 -1.460601
v -2.559246 2.745812 0.514288
v -1.393774 0.000000 -1.789067
v 1.412260 2.057916 -2.233564
v -0.637481 3.210890 -2.551726
v -1.273626 2.586719 -2.412807
v 1.460839 0.409549 -1.833702
v 1.273049 0.000000 -1.738168
v 2.279483 3.405034 -1.578134
v 2.149814 2.703878 -1.817977
v 1.930533 1.294614 -1.668604
v 1.968331 0.440161 1.029918
v 2.074242 3.189899 1.776428
v 1.667176 2.698725 2.156007
v 2.205556 1.713372 1.492368
v 2.372446 2.768810 1.421170
v -1.567325 0.000000 1.673105
v -1.690979 0.497056 1.690979
v -2.332952 2.667509 1.532380
v -2.360048 2.721761 1.502784
v -2.546273 2.433618 0.894170
v -2.113012 0.000000 0.407311
vt 0.273903 0.511269
vt 0.272789 0.443918
vt 0.298376 0.472296
vt 0.527265 0.434417
vt 0.489254 0.459121
vt 0.447007 0.436818
vt 0.646379 0.654975
vt 0.982209 0.825524
vt 0.567617 0.816210
vt 0.275451 0.794514
vt 0.313673 0.665118
vt 0.387199 0.788096
vt 0.493740 0.536657
vt 0.367927 0.477597
vt 0.887556 0.063998
vt 0.641248 0.307347
vt 0.426867 0.190432
vt 0.778077 0.421590
vt 0.693187 0.370618
vt 0.918415 0.118469
vt 0.598410 0.554000
vt 0.314478 0.207600
vt 0.307042 0.132792
vt 0.402277 0.565548
vt 0.323603 0.625170
vt 0.639476 0.597903
vt 0.567625 0.673701
vt 0.606080 0.449591
vt 0.519201 0.756998
vt 0.566397 0.681479
vt 0.690464 0.393129
vt 0.006080 0.368908
vt 0.294722 0.053536
vt 0.388825 0.244479
vt 0.319942 0.239918
vt 0.437267 0.368105
vt 0.380854 0.274078
vt 0.269721 0.460111
vt 0.469288 0.968865
vt 0.066177 0.537439
vt 0.163609 0.180192
vt 0.325227 0.047870
vt 0.527369 0.380193
vt 0.566338 0.326412
vt 0.982209 0.283265
vt 0.525902 0.571492
vt 0.105121 0.376518
vt 0.391984 0.328303
vt 0.245571 0.867339
vt 0.262830 0.075647
vt 0.953047 0.168164
vt 0.953047 0.818241
vt 0.269978 0.978438
vt 0.143674 0.858566
vn 0.7230 -0.0680 0.6875
vn 0.1277 0.8077 -0.5755
vn -0.8924 -0.2358 0.3847
vn -0.2173 -0.1872 0.9580
vn 0.0411 0.8243 0.5646
vn 0.0185 -0.2352 -0.9718
vn -0.7721 -0.1874 -0.6073
vn -0.8010 0.5956 -0.0612
vn 0.5509 -0.1814 -0.8146
vn 0.3254 0.3944 0.8594
vn -0.9593 0.2013 0.1982
vn -0.9763 0.1027 -0.1903
vn -0.7331 -0.1687 0.6588
vn -0.5264 0.3656 -0.7676
vn -0.5460 -0.1852 -0.8171
vn 0.8845 -0.4410 -0.1520
vn 0.6988 -0.1821 -0.6918
vn 0.2899 0.2613 -0.9207
vn 0.9850 -0.1601 -0.0645
vn 0.3612 -0.3771 0.8529
vn 0.8457 0.5268 0.0855
vn -0.9832 -0.1561 -0.0947
vn -0.4440 0.2479 0.8610
vn -0.5537 -0.1671 0.8158
vn 0.0000 -1.0000 0.0000
vn -0.8137 -0.2056 -0.5437
vn -0.7456 -0.2233 -0.6279
vn 0.5551 -0.1790 -0.8123
vn -0.5115 -0.1789 -0.8405
vn -0.5458 -0.1864 0.8169
vn -0.5552 -0.1859 0.8107
vn -0.5786 -0.1669 0.7984
usemtl Material
s off
f 38/1/1 40/2/1 37/3/1
f 7/4/2 3/5/2 2/6/2
f 45/7/3 46/8/3 42/9/3
f 19/10/4 21/11/4 9/12/4
f 2/6/5 11/13/5 12/14/5
f 27/15/6 30/16/6 28/17/6
f 25/18/7 6/19/7 1/20/7
f 17/21/8 11/13/8 7/4/8
f 28/17/9 18/22/9 31/23/9
f 13/24/10 22/25/10 38/1/10
f 26/26/11 44/27/11 17/21/11
f 25/18/12 17/21/12 14/28/12
f 42/9/13 10/29/13 43/30/13
f 6/19/14 15/31/14 14/28/14
f 6/19/15 27/15/15 1/20/15
f 23/32/16 32/33/16 31/23/16
f 4/34/17 35/35/17 18/22/17
f 4/34/18 28/17/18 5/36/18
f 34/37/19 39/38/19 35/35/19
f 39/38/20 38/1/20 21/11/20
f 12/14/21 37/3/21 40/2/21
f 25/18/22 46/8/22 45/7/22
f 10/29/23 9/12/23 13/24/23
f 42/9/24 41/39/24 19/10/24
f 46/40/25 24/41/25 27/42/25
f 38/1/1 39/38/1 40/2/1
f 2/6/2 5/36/2 8/43/2
f 8/43/2 7/4/2 2/6/2
f 41/39/3 42/9/3 46/8/3
f 42/9/3 43/30/3 45/7/3
f 43/30/3 44/27/3 45/7/3
f 3/5/5 11/13/5 2/6/5
f 11/13/5 13/24/5 12/14/5
f 30/16/6 29/44/6 28/17/6
f 28/17/6 31/23/6 27/15/6
f 31/23/6 32/33/6 27/15/6
f 1/20/26 24/45/26 25/18/26
f 25/18/27 15/31/27 6/19/27
f 7/4/8 14/28/8 17/21/8
f 17/21/8 16/46/8 11/13/8
f 11/13/8 3/5/8 7/4/8
f 28/17/28 4/34/28 18/22/28
f 38/1/10 37/3/10 12/14/10
f 12/14/10 13/24/10 38/1/10
f 45/7/11 44/27/11 26/26/11
f 44/27/11 16/46/11 17/21/11
f 14/28/12 15/31/12 25/18/12
f 25/18/12 26/26/12 17/21/12
f 7/4/14 8/43/14 14/28/14
f 8/43/14 29/44/14 14/28/14
f 29/44/14 30/16/14 14/28/14
f 30/16/14 6/19/14 14/28/14
f 6/19/29 30/16/29 27/15/29
f 31/23/16 18/22/16 23/32/16
f 18/22/16 35/35/16 36/47/16
f 23/32/16 18/22/16 36/47/16
f 4/34/17 34/37/17 35/35/17
f 8/43/18 5/36/18 29/44/18
f 5/36/18 33/48/18 4/34/18
f 29/44/18 5/36/18 28/17/18
f 33/48/18 34/37/18 4/34/18
f 34/37/19 33/48/19 40/2/19
f 40/2/19 39/38/19 34/37/19
f 39/38/19 36/47/19 35/35/19
f 38/1/20 22/25/20 21/11/20
f 21/11/20 19/10/20 36/47/20
f 19/10/20 20/49/20 23/32/20
f 36/47/20 19/10/20 23/32/20
f 36/47/20 39/38/20 21/11/20
f 40/2/21 33/48/21 12/14/21
f 33/48/21 5/36/21 12/14/21
f 5/36/21 2/6/21 12/14/21
f 45/7/22 26/26/22 25/18/22
f 25/18/22 24/45/22 46/8/22
f 9/12/23 21/11/23 13/24/23
f 21/11/23 22/25/23 13/24/23
f 13/24/23 11/13/23 16/46/23
f 10/29/23 16/46/23 43/30/23
f 16/46/23 44/27/23 43/30/23
f 13/24/23 16/46/23 10/29/23
f 20/49/30 19/10/30 41/39/30
f 19/10/31 9/12/31 42/9/31
f 9/12/32 10/29/32 42/9/32
f 1/50/25 27/42/25 24/41/25
f 27/42/25 32/51/25 46/40/25
f 32/51/25 23/52/25 46/40/25
f 23/52/25 20/53/25 46/40/25
f 20/53/25 41/54/25 46/40/25
