{
    "asset" : {
        "generator" : "Khronos glTF Blender I/O v3.3.32",
        "version" : "2.0"
    },
    "scene" : 0,
    "scenes" : [
        {
            "name" : "Scene",
            "nodes" : [
                7
            ]
        }
    ],
    "nodes" : [
        {
            "name" : "LegB.L.001",
            "rotation" : [
                0.6868364810943604,
                -2.7764283927478317e-12,
                -9.224849577549321e-07,
                0.7268120050430298
            ],
            "translation" : [
                6.792510554021192e-09,
                0.39352884888648987,
                1.5784520357442489e-09
            ]
        },
        {
            "children" : [
                0
            ],
            "name" : "LegA.L.001",
            "rotation" : [
                5.265284244160284e-07,
                0.6206902265548706,
                0.7840559482574463,
                4.168210523403104e-07
            ],
            "scale" : [
                1,
                1.000000238418579,
                1
            ],
            "translation" : [
                0.10384844243526459,
                0.41083812713623047,
                0.18671540915966034
            ]
        },
        {
            "name" : "Head",
            "rotation" : [
                -0.5701853632926941,
                7.03875511792157e-17,
                7.038842468194256e-17,
                0.8215160965919495
            ],
            "translation" : [
                -7.401128385902271e-17,
                0.7950960993766785,
                -0.259450227022171
            ]
        },
        {
            "name" : "LegB.R.001",
            "rotation" : [
                0.6868364810943604,
                2.7764283927478317e-12,
                9.224849577549321e-07,
                0.7268120050430298
            ],
            "translation" : [
                -6.792510554021192e-09,
                0.39352884888648987,
                1.5784520357442489e-09
            ]
        },
        {
            "children" : [
                3
            ],
            "name" : "LegA.R.001",
            "rotation" : [
                5.265284244160284e-07,
                -0.6206902265548706,
                -0.7840559482574463,
                4.168210523403104e-07
            ],
            "scale" : [
                1,
                1.000000238418579,
                1
            ],
            "translation" : [
                -0.10384844243526459,
                0.41083812713623047,
                0.18671540915966034
            ]
        },
        {
            "children" : [
                1,
                2,
                4
            ],
            "name" : "Root",
            "rotation" : [
                0.6206905841827393,
                7.09383630976941e-21,
                -1.3781826915824425e-16,
                0.7840556502342224
            ],
            "scale" : [
                1,
                1,
                1.0000054836273193
            ],
            "translation" : [
                1.1408130901196536e-16,
                0.5137765407562256,
                -0.4099281132221222
            ]
        },
        {
            "mesh" : 0,
            "name" : "Sphere",
            "skin" : 0
        },
        {
            "children" : [
                6,
                5
            ],
            "name" : "Armature"
        }
    ],
    "animations" : [
        {
            "channels" : [
                {
                    "sampler" : 0,
                    "target" : {
                        "node" : 5,
                        "path" : "translation"
                    }
                },
                {
                    "sampler" : 1,
                    "target" : {
                        "node" : 5,
                        "path" : "rotation"
                    }
                },
                {
                    "sampler" : 2,
                    "target" : {
                        "node" : 5,
                        "path" : "scale"
                    }
                },
                {
                    "sampler" : 3,
                    "target" : {
                        "node" : 1,
                        "path" : "translation"
                    }
                },
                {
                    "sampler" : 4,
                    "target" : {
                        "node" : 1,
                        "path" : "rotation"
                    }
                },
                {
                    "sampler" : 5,
                    "target" : {
                        "node" : 1,
                        "path" : "scale"
                    }
                },
                {
                    "sampler" : 6,
                    "target" : {
                        "node" : 0,
                        "path" : "translation"
                    }
                },
                {
                    "sampler" : 7,
                    "target" : {
                        "node" : 0,
                        "path" : "rotation"
                    }
                },
                {
                    "sampler" : 8,
                    "target" : {
                        "node" : 0,
                        "path" : "scale"
                    }
                },
                {
                    "sampler" : 9,
                    "target" : {
                        "node" : 2,
                        "path" : "translation"
                    }
                },
                {
                    "sampler" : 10,
                    "target" : {
                        "node" : 2,
                        "path" : "rotation"
                    }
                },
                {
                    "sampler" : 11,
                    "target" : {
                        "node" : 2,
                        "path" : "scale"
                    }
                },
                {
                    "sampler" : 12,
                    "target" : {
                        "node" : 4,
                        "path" : "translation"
                    }
                },
                {
                    "sampler" : 13,
                    "target" : {
                        "node" : 4,
                        "path" : "rotation"
                    }
                },
                {
                    "sampler" : 14,
                    "target" : {
                        "node" : 4,
                        "path" : "scale"
                    }
                },
                {
                    "sampler" : 15,
                    "target" : {
                        "node" : 3,
                        "path" : "translation"
                    }
                },
                {
                    "sampler" : 16,
                    "target" : {
                        "node" : 3,
                        "path" : "rotation"
                    }
                },
                {
                    "sampler" : 17,
                    "target" : {
                        "node" : 3,
                        "path" : "scale"
                    }
                }
            ],
            "name" : "Idle",
            "samplers" : [
                {
                    "input" : 7,
                    "interpolation" : "LINEAR",
                    "output" : 8
                },
                {
                    "input" : 7,
                    "interpolation" : "LINEAR",
                    "output" : 9
                },
                {
                    "input" : 7,
                    "interpolation" : "LINEAR",
                    "output" : 10
                },
                {
                    "input" : 7,
                    "interpolation" : "LINEAR",
                    "output" : 11
                },
                {
                    "input" : 7,
                    "interpolation" : "LINEAR",
                    "output" : 12
                },
                {
                    "input" : 7,
                    "interpolation" : "LINEAR",
                    "output" : 13
                },
                {
                    "input" : 7,
                    "interpolation" : "LINEAR",
                    "output" : 14
                },
                {
                    "input" : 7,
                    "interpolation" : "LINEAR",
                    "output" : 15
                },
                {
                    "input" : 7,
                    "interpolation" : "LINEAR",
                    "output" : 16
                },
                {
                    "input" : 7,
                    "interpolation" : "LINEAR",
                    "output" : 17
                },
                {
                    "input" : 7,
                    "interpolation" : "LINEAR",
                    "output" : 18
                },
                {
                    "input" : 7,
                    "interpolation" : "LINEAR",
                    "output" : 19
                },
                {
                    "input" : 7,
                    "interpolation" : "LINEAR",
                    "output" : 20
                },
                {
                    "input" : 7,
                    "interpolation" : "LINEAR",
                    "output" : 21
                },
                {
                    "input" : 7,
                    "interpolation" : "LINEAR",
                    "output" : 22
                },
                {
                    "input" : 7,
                    "interpolation" : "LINEAR",
                    "output" : 23
                },
                {
                    "input" : 7,
                    "interpolation" : "LINEAR",
                    "output" : 24
                },
                {
                    "input" : 7,
                    "interpolation" : "LINEAR",
                    "output" : 25
                }
            ]
        }
    ],
    "materials" : [
        {
            "doubleSided" : true,
            "name" : "Material",
            "pbrMetallicRoughness" : {
                "baseColorTexture" : {
                    "index" : 0
                },
                "metallicFactor" : 0,
                "roughnessFactor" : 0.4000000059604645
            }
        }
    ],
    "meshes" : [
        {
            "name" : "Sphere.002",
            "primitives" : [
                {
                    "attributes" : {
                        "POSITION" : 0,
                        "NORMAL" : 1,
                        "TEXCOORD_0" : 2,
                        "JOINTS_0" : 3,
                        "WEIGHTS_0" : 4
                    },
                    "indices" : 5,
                    "material" : 0
                }
            ]
        }
    ],
    "textures" : [
        {
            "sampler" : 0,
            "source" : 0
        }
    ],
    "images" : [
        {
            "mimeType" : "image/png",
            "name" : "Untitled",
            "uri" : "Untitled.png"
        }
    ],
    "skins" : [
        {
            "inverseBindMatrices" : 6,
            "joints" : [
                5,
                1,
                0,
                2,
                4,
                3
            ],
            "name" : "Armature"
        }
    ],
    "accessors" : [
        {
            "bufferView" : 0,
            "componentType" : 5126,
            "count" : 1762,
            "max" : [
                0.5002729892730713,
                1.543459177017212,
                0.8466370105743408
            ],
            "min" : [
                -0.5002731084823608,
                0.005639016628265381,
                -0.5873943567276001
            ],
            "type" : "VEC3"
        },
        {
            "bufferView" : 1,
            "componentType" : 5126,
            "count" : 1762,
            "type" : "VEC3"
        },
        {
            "bufferView" : 2,
            "componentType" : 5126,
            "count" : 1762,
            "type" : "VEC2"
        },
        {
            "bufferView" : 3,
            "componentType" : 5121,
            "count" : 1762,
            "type" : "VEC4"
        },
        {
            "bufferView" : 4,
            "componentType" : 5126,
            "count" : 1762,
            "type" : "VEC4"
        },
        {
            "bufferView" : 5,
            "componentType" : 5123,
            "count" : 7212,
            "type" : "SCALAR"
        },
        {
            "bufferView" : 6,
            "componentType" : 5126,
            "count" : 6,
            "type" : "MAT4"
        },
        {
            "bufferView" : 7,
            "componentType" : 5126,
            "count" : 17,
            "max" : [
                0.7083333333333334
            ],
            "min" : [
                0.041666666666666664
            ],
            "type" : "SCALAR"
        },
        {
            "bufferView" : 8,
            "componentType" : 5126,
            "count" : 17,
            "type" : "VEC3"
        },
        {
            "bufferView" : 9,
            "componentType" : 5126,
            "count" : 17,
            "type" : "VEC4"
        },
        {
            "bufferView" : 10,
            "componentType" : 5126,
            "count" : 17,
            "type" : "VEC3"
        },
        {
            "bufferView" : 11,
            "componentType" : 5126,
            "count" : 17,
            "type" : "VEC3"
        },
        {
            "bufferView" : 12,
            "componentType" : 5126,
            "count" : 17,
            "type" : "VEC4"
        },
        {
            "bufferView" : 13,
            "componentType" : 5126,
            "count" : 17,
            "type" : "VEC3"
        },
        {
            "bufferView" : 14,
            "componentType" : 5126,
            "count" : 17,
            "type" : "VEC3"
        },
        {
            "bufferView" : 15,
            "componentType" : 5126,
            "count" : 17,
            "type" : "VEC4"
        },
        {
            "bufferView" : 16,
            "componentType" : 5126,
            "count" : 17,
            "type" : "VEC3"
        },
        {
            "bufferView" : 17,
            "componentType" : 5126,
            "count" : 17,
            "type" : "VEC3"
        },
        {
            "bufferView" : 18,
            "componentType" : 5126,
            "count" : 17,
            "type" : "VEC4"
        },
        {
            "bufferView" : 19,
            "componentType" : 5126,
            "count" : 17,
            "type" : "VEC3"
        },
        {
            "bufferView" : 20,
            "componentType" : 5126,
            "count" : 17,
            "type" : "VEC3"
        },
        {
            "bufferView" : 21,
            "componentType" : 5126,
            "count" : 17,
            "type" : "VEC4"
        },
        {
            "bufferView" : 22,
            "componentType" : 5126,
            "count" : 17,
            "type" : "VEC3"
        },
        {
            "bufferView" : 23,
            "componentType" : 5126,
            "count" : 17,
            "type" : "VEC3"
        },
        {
            "bufferView" : 24,
            "componentType" : 5126,
            "count" : 17,
            "type" : "VEC4"
        },
        {
            "bufferView" : 25,
            "componentType" : 5126,
            "count" : 17,
            "type" : "VEC3"
        }
    ],
    "bufferViews" : [
        {
            "buffer" : 0,
            "byteLength" : 21144,
            "byteOffset" : 0,
            "target" : 34962
        },
        {
            "buffer" : 0,
            "byteLength" : 21144,
            "byteOffset" : 21144,
            "target" : 34962
        },
        {
            "buffer" : 0,
            "byteLength" : 14096,
            "byteOffset" : 42288,
            "target" : 34962
        },
        {
            "buffer" : 0,
            "byteLength" : 7048,
            "byteOffset" : 56384,
            "target" : 34962
        },
        {
            "buffer" : 0,
            "byteLength" : 28192,
            "byteOffset" : 63432,
            "target" : 34962
        },
        {
            "buffer" : 0,
            "byteLength" : 14424,
            "byteOffset" : 91624,
            "target" : 34963
        },
        {
            "buffer" : 0,
            "byteLength" : 384,
            "byteOffset" : 106048
        },
        {
            "buffer" : 0,
            "byteLength" : 68,
            "byteOffset" : 106432
        },
        {
            "buffer" : 0,
            "byteLength" : 204,
            "byteOffset" : 106500
        },
        {
            "buffer" : 0,
            "byteLength" : 272,
            "byteOffset" : 106704
        },
        {
            "buffer" : 0,
            "byteLength" : 204,
            "byteOffset" : 106976
        },
        {
            "buffer" : 0,
            "byteLength" : 204,
            "byteOffset" : 107180
        },
        {
            "buffer" : 0,
            "byteLength" : 272,
            "byteOffset" : 107384
        },
        {
            "buffer" : 0,
            "byteLength" : 204,
            "byteOffset" : 107656
        },
        {
            "buffer" : 0,
            "byteLength" : 204,
            "byteOffset" : 107860
        },
        {
            "buffer" : 0,
            "byteLength" : 272,
            "byteOffset" : 108064
        },
        {
            "buffer" : 0,
            "byteLength" : 204,
            "byteOffset" : 108336
        },
        {
            "buffer" : 0,
            "byteLength" : 204,
            "byteOffset" : 108540
        },
        {
            "buffer" : 0,
            "byteLength" : 272,
            "byteOffset" : 108744
        },
        {
            "buffer" : 0,
            "byteLength" : 204,
            "byteOffset" : 109016
        },
        {
            "buffer" : 0,
            "byteLength" : 204,
            "byteOffset" : 109220
        },
        {
            "buffer" : 0,
            "byteLength" : 272,
            "byteOffset" : 109424
        },
        {
            "buffer" : 0,
            "byteLength" : 204,
            "byteOffset" : 109696
        },
        {
            "buffer" : 0,
            "byteLength" : 204,
            "byteOffset" : 109900
        },
        {
            "buffer" : 0,
            "byteLength" : 272,
            "byteOffset" : 110104
        },
        {
            "buffer" : 0,
            "byteLength" : 204,
            "byteOffset" : 110376
        }
    ],
    "samplers" : [
        {
            "magFilter" : 9729,
            "minFilter" : 9987
        }
    ],
    "buffers" : [
        {
            "byteLength" : 110580,
            "uri" : "duck.bin"
        }
    ]
}
