# Blender v3.3.1 OBJ File: 'terrain.blend'
# www.blender.org
o Cube
v -300.000000 -30.000000 300.000000
v -300.000000 -30.000000 -300.000000
v 300.000000 -30.000000 300.000000
v 300.000000 -30.000000 -300.000000
v -320.000000 -50.000000 320.000000
v -320.000000 -50.000000 -320.000000
v 320.000000 -50.000000 320.000000
v 320.000000 -50.000000 -320.000000
v -300.000000 140.000000 -140.000000
v -300.000000 140.000000 -300.000000
v -300.000000 140.000000 300.000000
v 300.000000 140.000000 -300.000000
v 300.000000 140.000000 300.000000
v -140.000000 140.000000 300.000000
v -320.000000 140.000000 -140.000000
v -320.000000 140.000000 320.000000
v -320.000000 140.000000 -320.000000
v 320.000000 140.000000 -320.000000
v 320.000000 140.000000 320.000000
v -140.000000 140.000000 320.000000
vt 0.292352 0.281858
vt 0.350372 0.342580
vt 0.255084 0.364948
vt 0.352424 0.010634
vt 0.085105 0.081620
vt 0.265269 0.101275
vt 0.093950 0.277974
vt 0.027210 0.335771
vt 0.008712 0.239414
vt 0.436357 0.999911
vt 0.362152 0.999911
vt 0.362152 0.820255
vt 0.436357 0.749955
vt 0.362152 0.500000
vt 0.436357 0.500000
vt 0.436357 0.250044
vt 0.362152 0.250044
vt 0.362152 0.070389
vt 0.000089 0.624079
vt 0.250045 0.374123
vt 0.250044 0.624079
vt 0.255672 0.373945
vt 0.016858 0.345931
vt 0.018805 0.013873
vt 0.361974 0.000089
vt 0.027678 0.022725
vt 0.362152 0.749955
vt 0.362152 0.000089
vt 0.436357 0.000089
vt 0.000089 0.374123
vt 0.000089 0.239945
vt 0.361974 0.352510
vn 1.0000 0.0000 0.0000
vn 0.0000 0.0000 1.0000
vn -1.0000 0.0000 0.0000
vn 0.0000 0.0000 -1.0000
vn 0.0000 1.0000 0.0000
vn 0.0000 -1.0000 0.0000
s off
f 2/1/1 10/2/1 9/3/1
f 2/1/2 12/4/2 10/2/2
f 3/5/3 12/4/3 4/6/3
f 1/7/4 11/8/4 14/9/4
f 1/7/5 4/6/5 2/1/5
f 5/10/3 16/11/3 15/12/3
f 6/13/4 18/14/4 8/15/4
f 7/16/1 18/14/1 19/17/1
f 7/16/2 19/17/2 20/18/2
f 8/19/6 5/20/6 6/21/6
f 11/8/5 15/22/5 16/23/5
f 12/4/5 19/24/5 18/25/5
f 9/3/1 11/8/1 1/7/1
f 1/7/1 2/1/1 9/3/1
f 2/1/2 4/6/2 12/4/2
f 3/5/3 13/26/3 12/4/3
f 13/26/4 3/5/4 14/9/4
f 3/5/4 1/7/4 14/9/4
f 1/7/5 3/5/5 4/6/5
f 17/27/3 6/13/3 15/12/3
f 6/13/3 5/10/3 15/12/3
f 6/13/4 17/27/4 18/14/4
f 7/16/1 8/15/1 18/14/1
f 20/18/2 16/28/2 5/29/2
f 5/29/2 7/16/2 20/18/2
f 8/19/6 7/30/6 5/20/6
f 16/23/5 20/31/5 11/8/5
f 20/31/5 14/9/5 11/8/5
f 11/8/5 9/3/5 15/22/5
f 15/22/5 9/3/5 10/2/5
f 17/32/5 15/22/5 10/2/5
f 14/9/5 20/31/5 13/26/5
f 20/31/5 19/24/5 13/26/5
f 18/25/5 17/32/5 10/2/5
f 12/4/5 13/26/5 19/24/5
f 18/25/5 10/2/5 12/4/5
