# Blender v3.3.1 OBJ File: 'terrain.blend'
# www.blender.org
o Terrain.003_Plane.005
v -299.999847 39.131821 -99.918541
v -100.000000 0.000850 -100.000008
v -259.485413 2.887216 -299.866913
v -271.796326 2.773918 -299.877258
v -281.213745 -0.909366 -299.135437
v -299.972107 -0.337120 -299.911346
v -299.799957 26.269495 -277.378723
v -299.056488 29.236301 -271.658875
v -300.675476 36.830894 -265.132263
v -299.999939 39.042240 -203.604507
v -253.233490 38.257233 -100.050125
v -234.610306 6.524671 -99.901497
v -230.081497 1.542244 -98.817490
v -234.424362 1.843021 -200.238892
v -251.738922 34.460464 -201.411102
v -254.012726 39.351402 -110.055313
v -257.260315 39.071651 -196.994431
v -245.390900 26.997143 -100.051430
v -247.236801 37.256981 -116.333923
v -252.593826 38.806217 -124.243042
v -239.848618 38.743061 -176.524185
v -246.705032 33.114899 -193.078384
v -235.603317 38.903091 -161.443832
v -234.927765 27.123055 -106.802322
v -238.211853 38.765320 -131.320419
v -233.528595 33.285233 -175.494385
v -238.176620 33.931305 -183.737244
v -230.633606 33.194992 -165.503296
v -234.925858 32.960587 -124.576706
v -230.112289 35.259773 -133.402557
v -226.340332 2.721272 -191.594635
v -218.916534 0.063544 -186.968582
v -227.114975 7.411198 -104.985504
v -220.558243 3.695640 -176.979111
v -217.453278 0.118318 -99.992538
v -221.104965 0.669215 -117.946884
v -215.877411 3.132969 -129.668900
v -214.742493 0.095079 -167.841339
v -211.562347 -0.002888 -127.196480
v -300.008698 38.751320 -257.990082
v -299.944611 1.207535 -291.644470
v -294.163452 37.088669 -275.756744
v -290.807220 38.799881 -271.576447
v -285.094849 36.957977 -280.650970
v -289.233337 3.759770 -294.990540
v -276.450409 38.559486 -214.408585
v -276.553711 34.683128 -281.956848
v -271.334351 33.797398 -217.742401
v -271.526917 34.393600 -233.859467
v -272.513611 38.660805 -240.019653
v -272.349487 38.782112 -277.244385
v -270.379028 34.688564 -285.755188
v -260.537781 32.893242 -207.175400
v -263.688812 16.565256 -228.837280
v -260.661316 38.773521 -279.501129
v -263.614563 37.846928 -240.115646
v -259.426697 33.995392 -285.604675
v -250.784454 4.388981 -216.685516
v -258.498291 3.569023 -223.782349
v -252.845917 33.037205 -280.175659
v -255.098618 34.298313 -244.473938
v -255.973358 38.718571 -249.911591
v -252.184875 0.482096 -299.965179
v -251.210129 0.022081 -222.662155
v -248.923889 1.923720 -231.037872
v -246.901001 38.835457 -260.063171
v -246.903717 36.565258 -275.302032
v -246.417053 3.859152 -291.488861
v -236.347443 0.367779 -289.210602
v -235.449448 0.164307 -207.649109
v -244.142014 3.859422 -233.902771
v -241.321640 35.433186 -257.049408
v -243.263153 33.251545 -267.192352
v -232.236786 2.231153 -281.548615
v -227.381775 3.380684 -255.622604
v -229.939972 3.508319 -270.373352
v -224.759720 0.025718 -269.200623
v -100.000000 0.000000 -300.000000
v -225.830521 0.033455 -248.785782
vt 0.331925 0.499939
vt 0.238319 0.505817
vt 0.265806 0.460337
vt 0.403863 0.435564
vt 0.368700 0.452575
vt 0.216502 0.488623
vt 0.002828 0.519532
vt -0.000000 -0.000012
vt 0.233958 0.001421
vt 0.227703 0.047689
vt 0.230354 0.122359
vt 0.317722 0.307442
vt 0.257344 0.085063
vt 0.270471 -0.001486
vt 0.323211 0.035869
vt 0.323133 0.120767
vt 0.308523 0.155936
vt 0.311055 0.416367
vt 0.296921 0.381319
vt 0.343911 0.328940
vt 0.348401 0.170981
vt 0.392676 0.382403
vt 0.330853 0.378697
vt 0.369596 0.022734
vt 0.396747 0.089546
vt 0.433616 0.334750
vt 0.402635 0.003338
vt 0.441746 0.138674
vt 0.418412 0.150924
vt 0.370698 0.743398
vt 1.000000 0.000000
vt 0.058933 0.975362
vt 0.096100 1.000112
vt 0.000148 1.000000
vt 0.319379 0.945848
vt 1.000000 1.000000
vt 0.250547 0.992179
vt 0.000000 0.825661
vt 0.050779 0.853086
vt 0.000000 0.861457
vt 0.032189 0.874710
vt 0.000000 0.886496
vt 0.000623 0.961171
vt 0.072221 0.897902
vt 0.136439 0.887154
vt 0.117814 0.572079
vt 0.138480 0.699010
vt 0.000653 0.789523
vt 0.141284 0.668417
vt 0.191930 0.535587
vt 0.144717 0.588452
vt 0.152161 0.927380
vt 0.122037 0.909384
vt 0.177756 0.702552
vt 0.194369 0.895148
vt 0.220829 0.750081
vt 0.203527 0.999930
vt 0.142473 1.000010
vt 0.230018 0.900944
vt 0.203673 0.925592
vt 0.209281 0.618337
vt 0.254087 0.654273
vt 0.261889 0.873967
vt 0.268632 0.958678
vt 0.223279 0.721236
vt 0.290153 0.784772
vt 0.282188 0.836401
vt 0.265046 0.798772
vt 0.318962 0.540351
vt 0.240643 0.582471
vt 0.243366 0.618220
vt 0.335362 0.907139
vt 0.282443 0.676102
vt 0.379133 0.846285
vt 0.350807 0.850855
vt 0.361205 0.781747
vt 0.326757 0.000000
vt 0.348840 0.000000
vt 0.177116 0.646868
vn 0.6308 0.6692 -0.3928
vn 0.5469 0.6529 -0.5241
vn 0.6558 0.5860 -0.4759
vn 0.2237 0.9676 -0.1171
vn 0.6548 0.5405 -0.5283
vn 0.2458 0.9363 -0.2508
vn 0.0058 1.0000 -0.0067
vn 0.0035 0.9999 0.0098
vn 0.4180 0.8904 0.1804
vn 0.1620 0.9860 0.0382
vn 0.0526 0.9982 0.0291
vn 0.4089 0.9107 -0.0586
vn 0.3884 0.8991 0.2018
vn 0.5703 0.5939 0.5674
vn 0.6649 0.5679 0.4851
vn 0.6636 0.6416 0.3847
vn 0.2810 0.9418 0.1847
vn 0.6356 0.6033 -0.4818
vn 0.3822 0.9027 -0.1976
vn 0.8109 0.5648 -0.1532
vn 0.7082 0.6698 0.2233
vn 0.7680 0.5751 -0.2819
vn 0.7750 0.5563 -0.2998
vn 0.6613 0.5892 0.4642
vn 0.5715 0.8003 0.1813
vn 0.4763 0.8744 -0.0922
vn 0.2457 0.9608 0.1286
vn 0.2009 0.9771 0.0695
vn 0.7279 0.6590 0.1897
vn 0.3806 0.9094 0.1676
vn 0.0006 1.0000 -0.0002
vn -0.1811 0.6036 -0.7764
vn -0.1583 0.5161 -0.8418
vn -0.1819 0.9136 -0.3637
vn 0.3032 0.8902 -0.3399
vn 0.0009 1.0000 0.0016
vn 0.3650 0.6478 -0.6687
vn -0.4332 0.7976 -0.4197
vn -0.2464 0.9575 -0.1501
vn -0.5454 0.4764 -0.6896
vn -0.8561 0.5156 -0.0343
vn -0.6021 0.7412 -0.2969
vn -0.6868 0.4441 -0.5755
vn -0.3702 0.7333 -0.5703
vn -0.1711 0.7247 -0.6675
vn -0.0534 0.9661 -0.2526
vn 0.2442 0.9639 -0.1058
vn 0.0484 0.9895 0.1364
vn -0.0707 0.9963 -0.0489
vn 0.7382 0.5545 0.3843
vn 0.9010 0.4106 0.1401
vn 0.4989 0.5758 -0.6477
vn 0.7191 0.6476 -0.2520
vn -0.2002 0.6408 -0.7412
vn -0.1620 0.6176 -0.7696
vn 0.3139 0.8118 0.4924
vn 0.1419 0.9228 -0.3583
vn 0.2136 0.9392 0.2688
vn 0.0696 0.4112 -0.9089
vn -0.1523 0.4290 -0.8904
vn 0.4535 0.5018 -0.7366
vn 0.3148 0.6033 -0.7328
vn 0.7299 0.6835 -0.0044
vn 0.1763 0.8249 0.5370
vn 0.5518 0.7150 -0.4293
vn 0.4740 0.5396 -0.6958
vn 0.5356 0.5565 0.6352
vn 0.7297 0.6572 0.1887
vn 0.8345 0.5150 -0.1956
vn 0.3550 0.9348 0.0131
vn 0.3649 0.8967 -0.2504
vn 0.5299 0.5438 -0.6508
vn 0.3317 0.9369 -0.1106
vn 0.8394 0.3297 -0.4321
vn 0.5294 0.5001 0.6853
vn 0.6333 0.7614 -0.1386
vn 0.7591 0.6247 -0.1830
vn 0.8813 0.4713 -0.0338
vn 0.0020 1.0000 0.0072
vn 0.4867 0.3853 0.7840
vn 0.2852 0.6221 0.7291
vn 0.7076 0.4829 0.5158
vn -0.3033 0.9438 0.1315
s 1
f 14/1/1 15/2/2 22/3/3
f 32/4/4 14/1/1 31/5/5
f 17/6/6 10/7/7 1/8/8
f 11/9/9 16/10/10 1/8/8
f 20/11/11 1/8/8 16/10/10
f 20/11/11 23/12/12 1/8/8
f 11/9/9 19/13/13 16/10/10
f 19/13/13 20/11/11 16/10/10
f 11/9/9 18/14/14 19/13/13
f 18/14/14 24/15/15 19/13/13
f 19/13/13 29/16/16 25/17/17
f 24/15/15 29/16/16 19/13/13
f 27/18/18 22/3/3 21/19/19
f 28/20/20 21/19/19 23/12/12
f 29/16/16 30/21/21 25/17/17
f 30/21/21 23/12/12 25/17/17
f 31/5/5 14/1/1 27/18/18
f 34/22/22 27/18/18 26/23/23
f 34/22/22 31/5/5 27/18/18
f 33/24/24 36/25/25 29/16/16
f 38/26/26 28/20/20 30/21/21
f 35/27/27 36/25/25 33/24/24
f 32/4/4 31/5/5 34/22/22
f 36/25/25 39/28/28 37/29/29
f 39/28/28 38/26/26 37/29/29
f 32/4/4 38/26/26 79/30/30
f 2/31/31 38/26/26 39/28/28
f 45/32/32 5/33/33 6/34/34
f 69/35/35 78/36/36 63/37/37
f 9/38/38 43/39/39 8/40/40
f 8/40/41 42/41/42 7/42/43
f 42/41/42 45/32/32 41/43/44
f 42/41/42 44/44/45 45/32/32
f 51/45/46 44/44/45 43/39/39
f 17/6/6 46/46/47 10/7/7
f 50/47/48 40/48/49 10/7/7
f 51/45/46 43/39/39 40/48/49
f 46/46/47 49/49/50 50/47/51
f 53/50/52 48/51/53 46/46/47
f 51/45/46 52/52/54 47/53/55
f 56/54/56 50/47/48 49/49/50
f 56/54/56 51/45/46 50/47/48
f 55/55/57 52/52/54 51/45/46
f 62/56/58 51/45/46 56/54/56
f 3/57/59 4/58/60 52/52/54
f 60/59/61 57/60/62 55/55/57
f 59/61/63 65/62/64 56/54/56
f 67/63/65 60/59/61 55/55/57
f 68/64/66 63/37/37 57/60/62
f 78/36/36 38/26/26 2/31/31
f 61/65/67 72/66/68 62/56/58
f 73/67/69 67/63/65 66/68/70
f 69/35/35 68/64/66 60/59/61
f 70/69/71 58/70/72 15/2/2
f 70/69/71 64/71/73 58/70/72
f 72/66/68 73/67/69 66/68/70
f 69/35/35 63/37/37 68/64/66
f 74/72/74 69/35/35 67/63/65
f 64/71/73 79/30/30 71/73/75
f 71/73/75 79/30/30 72/66/68
f 32/4/4 70/69/71 14/1/1
f 79/30/30 64/71/73 70/69/71
f 77/74/76 74/72/74 76/75/77
f 77/74/76 69/35/35 74/72/74
f 77/74/76 76/75/77 75/76/78
f 78/36/36 77/74/79 79/30/30
f 33/24/24 12/77/80 13/78/81
f 39/28/28 35/27/27 2/31/31
f 23/12/12 17/6/6 1/8/8
f 19/13/13 25/17/17 20/11/11
f 22/3/3 15/2/2 17/6/6
f 23/12/12 21/19/19 17/6/6
f 21/19/19 22/3/3 17/6/6
f 18/14/14 12/77/80 24/15/15
f 26/23/23 27/18/18 21/19/19
f 27/18/18 14/1/1 22/3/3
f 25/17/17 23/12/12 20/11/11
f 28/20/20 26/23/23 21/19/19
f 37/29/29 29/16/16 36/25/25
f 24/15/15 33/24/24 29/16/16
f 30/21/21 28/20/20 23/12/12
f 28/20/20 34/22/22 26/23/23
f 13/78/81 35/27/27 33/24/24
f 45/32/32 47/53/55 5/33/33
f 37/29/29 38/26/26 30/21/21
f 38/26/26 34/22/22 28/20/20
f 38/26/26 32/4/4 34/22/22
f 35/27/27 39/28/28 36/25/25
f 41/43/44 45/32/32 6/34/34
f 9/38/38 40/48/49 43/39/39
f 8/40/41 43/39/39 42/41/42
f 7/42/43 42/41/42 41/43/44
f 42/41/42 43/39/39 44/44/45
f 51/45/46 47/53/55 44/44/45
f 53/50/52 59/61/63 48/51/53
f 46/46/47 50/47/48 10/7/7
f 5/33/33 47/53/55 4/58/60
f 48/51/53 49/49/50 46/46/47
f 50/47/48 51/45/46 40/48/49
f 47/53/55 52/52/54 4/58/60
f 48/51/53 54/79/82 49/49/50
f 17/6/6 53/50/52 46/46/47
f 59/61/63 54/79/82 48/51/53
f 49/49/50 54/79/82 56/54/56
f 56/54/56 61/65/67 62/56/58
f 55/55/57 57/60/62 52/52/54
f 57/60/62 3/57/59 52/52/54
f 17/6/6 15/2/2 53/50/52
f 73/67/69 75/76/78 76/75/77
f 54/79/82 59/61/63 56/54/56
f 62/56/58 55/55/57 51/45/46
f 15/2/2 58/70/72 53/50/52
f 58/70/72 64/71/73 59/61/63
f 59/61/63 64/71/73 65/62/64
f 56/54/56 65/62/64 61/65/67
f 57/60/62 63/37/37 3/57/59
f 61/65/67 65/62/64 71/73/75
f 62/56/58 66/68/70 55/55/57
f 66/68/70 67/63/65 55/55/57
f 60/59/61 68/64/66 57/60/62
f 61/65/67 71/73/75 72/66/68
f 62/56/58 72/66/68 66/68/70
f 67/63/65 69/35/35 60/59/61
f 65/62/64 64/71/73 71/73/83
f 14/1/1 70/69/71 15/2/2
f 73/67/69 76/75/77 67/63/65
f 76/75/77 74/72/74 67/63/65
f 72/66/68 79/30/30 75/76/78
f 77/74/79 78/36/36 69/35/35
f 32/4/4 79/30/30 70/69/71
f 79/30/30 77/74/76 75/76/78
f 78/36/36 79/30/30 38/26/26
f 33/24/24 24/15/15 12/77/80
f 37/29/29 30/21/21 29/16/16
f 45/32/32 44/44/45 47/53/55
f 53/50/52 58/70/72 59/61/63
f 73/67/69 72/66/68 75/76/78
