# Blender v3.3.1 OBJ File: 'terrain.blend'
# www.blender.org
o Terrain.007_Plane.013
v 100.000000 0.000000 300.000000
v 300.000000 0.000000 300.000000
v 300.000000 0.000000 100.000000
v 100.000000 0.000000 100.000000
v 107.794518 0.028540 161.246902
v 111.696335 7.667159 158.841461
v 109.346352 0.321509 130.738892
v 113.755028 0.277533 174.470840
v 112.230721 0.360867 166.415756
v 114.283485 17.486568 159.013824
v 114.626282 0.438200 121.452171
v 119.144440 18.212120 172.481827
v 118.368690 32.153515 135.534958
v 121.895096 27.962954 168.099640
v 122.948692 28.201767 161.675400
v 119.234863 29.801840 155.594940
v 123.284210 32.716454 130.375885
v 127.747353 28.602358 164.775818
v 118.669418 21.958727 127.205414
v 127.007019 31.886652 152.115234
v 126.533310 33.737873 133.236710
v 126.478615 0.097153 108.285194
v 129.972534 0.086534 191.438568
v 134.707245 55.316395 161.062027
v 134.554901 66.828552 136.608673
v 143.409805 55.321461 169.746017
v 132.297607 38.385090 124.319534
v 132.235336 40.081333 119.030838
v 130.081299 23.610687 114.519913
v 137.142731 29.042307 175.953979
v 128.963547 7.539733 111.752716
v 133.184082 19.341600 185.200180
v 135.644653 29.029253 180.870667
v 134.694611 57.509007 153.742371
v 145.885361 46.142750 118.798759
v 146.677200 46.325157 123.169395
v 152.579666 34.054123 176.872284
v 152.733765 56.081963 162.399048
v 139.720749 68.458168 130.628021
v 154.490143 33.660118 181.433060
v 160.038803 55.629612 169.606110
v 151.299728 65.304008 143.265564
v 161.137299 64.722946 130.999390
v 169.001633 62.215263 149.606094
v 164.491730 36.876579 123.116318
v 132.141541 6.758013 188.702972
v 168.734161 57.071621 161.777542
v 169.259338 63.393410 143.060150
v 165.612869 63.794113 137.265015
v 172.732788 31.692457 131.092758
v 168.250397 35.720997 118.987946
v 168.720490 7.696327 111.616425
v 172.240845 28.307194 180.850189
v 167.895065 29.660488 175.823593
v 176.382629 30.921909 138.722672
v 176.909836 31.251863 127.363647
v 170.069946 24.064075 114.966660
v 172.484589 0.023790 107.794212
v 177.499390 34.599045 164.057922
v 176.875183 36.460934 155.363495
v 176.244827 0.020680 192.068604
v 174.506500 18.058271 185.482605
v 180.800400 31.290335 172.444504
v 177.495636 30.109537 131.846741
v 181.359543 19.651968 125.281456
v 184.994446 22.453331 173.675095
v 181.109055 36.671204 158.430405
v 181.808701 29.064953 135.716614
v 192.286133 0.003391 177.551651
v 189.550049 4.034945 175.699600
v 188.387085 7.692798 135.315033
v 191.955078 0.020533 132.053635
v 186.663315 0.066909 122.343391
vt 0.364701 0.959037
vt 1.000000 1.000000
vt 0.000000 1.000000
vt 0.440407 0.888094
vt 0.059353 0.670905
vt 0.038462 0.693768
vt 0.000000 0.000000
vt 0.057692 0.706989
vt 0.041177 0.847695
vt 0.094834 0.823193
vt 0.116408 0.691096
vt 0.076923 0.699076
vt 0.099576 0.720652
vt 0.115635 0.845354
vt 0.094893 0.866018
vt 0.148118 0.535421
vt 0.056730 0.626924
vt 0.145787 0.923891
vt 0.059075 0.890963
vt 0.134757 0.826162
vt 0.175915 0.708354
vt 0.134079 0.744577
vt 0.135413 0.691510
vt 0.175773 0.594597
vt 0.184893 0.613400
vt 0.212650 0.652063
vt 0.174751 0.811436
vt 0.197679 0.844626
vt 0.159637 0.873115
vt 0.131206 0.964360
vt 0.387129 0.537216
vt 0.164293 0.558376
vt 0.268863 0.687017
vt 0.177998 0.729123
vt 0.232667 0.884625
vt 0.160345 0.905347
vt 0.229702 0.904200
vt 0.263161 0.615385
vt 0.343602 0.942308
vt 0.147349 0.942308
vt 0.274457 0.594848
vt 0.164960 0.576102
vt 0.344599 0.757415
vt 0.260916 0.776355
vt 0.350802 0.920950
vt 0.344861 0.904058
vt 0.331130 0.622327
vt 0.302432 0.653511
vt 0.342928 0.690685
vt 0.327120 0.817404
vt 0.373892 0.575521
vt 0.346568 0.788369
vt 0.362873 0.844809
vt 0.318410 0.884941
vt 0.305649 0.846153
vt 0.380707 0.672122
vt 0.384578 0.865666
vt 0.405174 0.635449
vt 0.363468 0.596211
vt 0.384615 0.722873
vt 0.422717 0.631606
vt 0.404627 0.709627
vt 0.405222 0.822756
vt 0.383756 0.808240
vt 0.385100 0.841532
vt 0.405476 0.873252
vt 0.443873 0.623414
vt 0.442308 0.823425
vt 0.460356 0.848423
vt 0.465436 0.611704
vt 0.094385 0.636384
vt 0.110741 0.653467
vt 1.000000 0.000000
vn 0.0000 1.0000 -0.0034
vn 0.0002 1.0000 -0.0001
vn -0.0098 0.9999 -0.0117
vn 0.0005 1.0000 -0.0004
vn -0.5997 0.7695 0.2196
vn -0.3825 0.9150 0.1282
vn -0.0002 1.0000 0.0007
vn -0.9282 0.3364 0.1587
vn -0.9203 0.3058 -0.2438
vn -0.8850 0.3774 -0.2726
vn -0.5194 0.8118 0.2669
vn -0.8708 0.3487 0.3465
vn -0.5967 0.7495 0.2867
vn -0.6133 0.7666 -0.1901
vn -0.7960 0.3307 -0.5070
vn 0.0052 1.0000 0.0022
vn 0.0228 0.9997 0.0047
vn -0.3861 0.2417 -0.8902
vn -0.4535 0.8199 -0.3494
vn -0.6802 0.7331 -0.0022
vn -0.8773 0.2905 0.3821
vn -0.6892 0.7068 0.1597
vn -0.5097 0.8152 0.2750
vn -0.3378 0.7712 0.5396
vn -0.1669 0.9849 -0.0460
vn -0.3721 0.3136 0.8736
vn -0.9012 0.2678 -0.3409
vn -0.4101 0.3202 -0.8540
vn -0.6255 0.7748 -0.0923
vn -0.1636 0.9160 -0.3663
vn 0.1692 0.8934 0.4161
vn -0.3362 0.3645 0.8684
vn -0.3734 0.4533 0.8094
vn -0.5261 0.3123 0.7910
vn -0.0541 0.9763 0.2096
vn -0.0573 0.9750 0.2146
vn -0.0379 0.9978 0.0552
vn -0.0794 0.9153 0.3949
vn -0.0235 0.2873 -0.9576
vn -0.5214 0.7078 -0.4766
vn -0.0063 0.2306 -0.9730
vn -0.0506 0.9955 0.0801
vn 0.0025 0.2779 0.9606
vn -0.1908 0.2898 -0.9379
vn -0.1125 0.3961 -0.9113
vn -0.3244 0.3301 -0.8864
vn 0.0585 0.8176 0.5728
vn -0.3724 0.3506 0.8593
vn 0.0068 0.9441 0.3295
vn 0.0237 0.9425 0.3334
vn 0.4059 0.2963 -0.8646
vn 0.0407 0.9992 -0.0036
vn 0.4130 0.8995 0.1429
vn -0.0372 0.9987 -0.0349
vn 0.4127 0.3539 -0.8393
vn 0.2870 0.8459 0.4496
vn -0.0440 0.9933 0.1069
vn -0.0466 0.9492 0.3112
vn 0.1298 0.9911 0.0294
vn 0.0483 0.9799 0.1935
vn 0.3695 0.3540 0.8592
vn 0.1064 0.9882 0.1098
vn 0.6314 0.7587 -0.1607
vn 0.5752 0.2862 -0.7663
vn 0.4616 0.3249 -0.8254
vn 0.8155 0.3638 0.4502
vn 0.3830 0.8064 0.4506
vn 0.9300 0.3480 0.1181
vn 0.6933 0.7051 -0.1487
vn 0.5126 0.7311 0.4503
vn 0.2805 0.7101 0.6459
vn 0.9667 0.2511 -0.0487
vn 0.9235 0.2797 -0.2626
vn 0.8661 0.3266 0.3784
vn 0.5151 0.8550 0.0605
vn 0.0657 0.9845 -0.1627
vn 0.7062 0.6591 -0.2588
vn 0.5904 0.7582 -0.2769
vn 0.5533 0.8228 -0.1300
vn 0.8093 0.3347 -0.4826
vn 0.7749 0.3149 -0.5481
vn 0.6939 0.2780 -0.6642
vn 0.8142 0.4747 0.3342
vn 0.9348 0.3234 0.1473
vn 0.8994 0.3851 -0.2066
vn 0.2973 0.9441 0.1423
vn -0.8167 0.3591 0.4518
vn -0.6484 0.7397 0.1801
vn 0.0008 1.0000 0.0022
vn 0.0001 1.0000 0.0001
vn -0.0497 0.9988 0.0047
vn -0.8315 0.3224 0.4524
vn 0.0081 0.9932 0.1161
vn -0.9521 0.2775 0.1283
vn -0.0601 0.9294 0.3641
vn 0.3336 0.3312 0.8826
vn 0.1714 0.9849 0.0236
vn 0.4482 0.8791 0.1620
vn 0.8183 0.2665 -0.5093
s 1
f 58/1/1 3/2/2 4/3/3
f 73/4/4 3/2/2 58/1/1
f 9/5/5 5/6/6 1/7/7
f 6/8/8 7/9/9 5/6/6
f 6/8/8 13/10/10 7/9/9
f 15/11/11 10/12/12 9/5/5
f 16/13/13 13/10/10 10/12/12
f 13/10/10 17/14/14 19/15/15
f 23/16/16 8/17/17 1/7/7
f 19/15/15 29/18/18 11/19/19
f 21/20/20 17/14/14 16/13/13
f 24/21/21 20/22/22 18/23/23
f 33/24/24 30/25/25 15/11/11
f 26/26/26 24/21/21 18/23/23
f 25/27/27 21/20/20 20/22/22
f 21/20/20 39/28/28 27/29/29
f 58/1/1 4/3/3 22/30/30
f 61/31/31 46/32/32 23/16/33
f 26/26/26 18/23/23 30/25/34
f 38/33/35 24/21/36 26/26/37
f 38/33/35 34/34/38 24/21/36
f 39/28/28 36/35/39 27/29/29
f 28/36/40 35/37/41 29/18/18
f 33/24/24 37/38/42 30/25/25
f 37/38/43 26/26/26 30/25/34
f 52/39/44 58/1/45 31/40/46
f 40/41/47 33/24/24 32/42/48
f 40/41/47 37/38/42 33/24/24
f 44/43/49 42/44/50 34/34/38
f 57/45/51 52/39/44 35/37/41
f 36/35/52 51/46/53 35/37/54
f 51/46/55 57/45/51 35/37/41
f 40/41/47 54/47/56 37/38/42
f 41/48/57 47/49/58 38/33/35
f 42/44/50 49/50/59 39/28/60
f 46/32/32 62/51/61 40/41/47
f 44/43/49 48/52/62 42/44/50
f 50/53/63 45/54/64 43/55/65
f 47/49/66 59/56/67 44/43/68
f 50/53/63 56/57/69 51/46/53
f 63/58/70 54/47/56 53/59/71
f 59/56/67 60/60/72 48/52/73
f 62/51/61 66/61/74 63/58/70
f 67/62/75 60/60/76 59/56/67
f 68/63/77 55/64/78 60/60/76
f 68/63/77 64/65/79 55/64/78
f 64/65/79 65/66/80 56/57/69
f 65/66/80 57/45/51 56/57/69
f 73/4/81 58/1/82 65/66/80
f 63/58/70 66/61/74 67/62/75
f 66/61/74 70/67/83 67/62/75
f 71/68/84 68/63/77 67/62/75
f 72/69/85 73/4/81 68/63/77
f 69/70/86 71/68/84 70/67/83
f 9/5/5 12/71/87 14/72/88
f 3/2/2 72/69/89 69/70/86
f 1/7/7 2/73/90 61/31/31
f 2/73/90 3/2/2 61/31/31
f 1/7/7 5/6/6 4/3/3
f 5/6/6 7/9/91 4/3/3
f 8/17/17 9/5/5 1/7/7
f 9/5/5 6/8/8 5/6/6
f 7/9/91 11/19/19 4/3/3
f 9/5/5 10/12/12 6/8/8
f 10/12/12 13/10/10 6/8/8
f 7/9/9 13/10/10 19/15/15
f 7/9/9 19/15/15 11/19/19
f 12/71/87 32/42/48 14/72/88
f 9/5/5 14/72/88 15/11/11
f 15/11/11 16/13/13 10/12/12
f 11/19/19 22/30/30 4/3/3
f 46/32/32 12/71/87 8/17/92
f 13/10/93 16/13/13 17/14/14
f 23/16/33 46/32/32 8/17/92
f 15/11/11 20/22/22 16/13/13
f 33/24/24 15/11/11 14/72/88
f 28/36/40 17/14/14 27/29/29
f 20/22/22 21/20/20 16/13/13
f 21/20/20 27/29/29 17/14/14
f 31/40/46 11/19/19 29/18/18
f 28/36/40 36/35/52 35/37/54
f 30/25/25 18/23/23 15/11/11
f 19/15/15 28/36/40 29/18/18
f 32/42/48 33/24/24 14/72/88
f 24/21/21 34/34/94 20/22/22
f 34/34/94 25/27/27 20/22/22
f 21/20/20 25/27/27 39/28/28
f 31/40/46 58/1/45 22/30/30
f 1/7/7 61/31/31 23/16/16
f 70/67/83 61/31/31 69/70/86
f 29/18/18 35/37/41 31/40/46
f 26/26/37 41/48/57 38/33/35
f 34/34/38 42/44/50 25/27/95
f 35/37/41 52/39/44 31/40/46
f 46/32/32 40/41/47 32/42/48
f 37/38/43 41/48/96 26/26/26
f 25/27/95 42/44/50 39/28/60
f 39/28/28 43/55/65 36/35/39
f 38/33/35 44/43/49 34/34/38
f 37/38/43 54/47/56 41/48/96
f 39/28/60 49/50/59 43/55/97
f 43/55/65 45/54/64 36/35/39
f 36/35/52 45/54/98 51/46/53
f 40/41/47 62/51/61 53/59/71
f 40/41/47 53/59/71 54/47/56
f 41/48/96 54/47/56 59/56/67
f 41/48/96 59/56/67 47/49/66
f 47/49/58 44/43/49 38/33/35
f 42/44/50 48/52/62 49/50/59
f 49/50/99 50/53/63 43/55/65
f 50/53/63 51/46/53 45/54/98
f 46/32/32 61/31/31 62/51/61
f 44/43/68 59/56/67 48/52/73
f 48/52/73 55/64/78 49/50/99
f 55/64/78 50/53/63 49/50/99
f 56/57/69 57/45/51 51/46/55
f 57/45/51 58/1/45 52/39/44
f 53/59/71 62/51/61 63/58/70
f 63/58/70 59/56/67 54/47/56
f 60/60/72 55/64/78 48/52/73
f 55/64/78 64/65/79 50/53/63
f 50/53/63 64/65/79 56/57/69
f 65/66/80 58/1/82 57/45/51
f 63/58/70 67/62/75 59/56/67
f 67/62/75 68/63/77 60/60/76
f 65/66/80 68/63/77 73/4/81
f 62/51/61 70/67/83 66/61/74
f 67/62/75 70/67/83 71/68/84
f 71/68/84 72/69/85 68/63/77
f 69/70/86 72/69/85 71/68/84
f 9/5/5 8/17/92 12/71/87
f 3/2/2 73/4/4 72/69/89
f 69/70/86 61/31/31 3/2/2
f 12/71/87 46/32/32 32/42/48
f 15/11/11 18/23/23 20/22/22
f 28/36/40 19/15/15 17/14/14
f 31/40/46 22/30/30 11/19/19
f 28/36/40 27/29/29 36/35/52
f 70/67/83 62/51/61 61/31/31
f 65/66/80 64/65/79 68/63/77
