# Blender v3.3.1 OBJ File: 'terrain.blend'
# www.blender.org
o Terrain.008_Plane.012
v -100.000000 32.838287 234.615372
v -100.000000 38.353420 238.461533
v -99.999168 38.409893 281.406891
v -100.000000 38.410412 300.000000
v -81.558052 38.410370 299.997162
v -46.188210 38.385315 299.987854
v -38.832726 21.912769 299.947479
v -30.249136 0.151227 300.007782
v 100.000000 0.000000 300.000000
v 100.000000 0.000000 100.000000
v -100.000000 0.000000 100.000000
v -96.149582 41.504116 280.730682
v -99.936264 0.285278 224.680634
v -95.728821 41.146244 245.540268
v -93.793488 1.105958 222.157394
v -81.061707 41.789555 295.831757
v -88.829895 62.516396 278.147919
v -88.457458 64.071564 249.236160
v -99.990517 38.398609 245.407364
v -91.058990 38.303181 233.521973
v -89.308533 10.781278 222.242676
v -84.632935 69.631416 276.535095
v -85.367546 28.702370 225.687225
v -76.309608 69.631767 284.632690
v -82.067963 69.720039 247.449875
v -85.847488 41.542225 235.862000
v -76.534775 69.655617 246.340637
v -80.306137 63.213051 241.724854
v -73.197990 69.147781 241.424744
v -87.933365 0.062562 209.409363
v -68.810265 59.200191 234.271286
v -80.589775 38.639011 230.716263
v -81.161613 38.032604 218.324036
v -84.347290 13.927795 212.685135
v -77.695038 63.520275 288.737671
v -64.490768 69.080421 237.112823
v -68.161003 41.336941 227.160858
v -65.674011 38.344238 218.815979
v -68.845139 69.645432 242.487000
v -62.714149 38.310646 222.584808
v -60.955555 0.054642 208.057129
v -61.456429 68.501045 285.684265
v -58.977531 69.418976 237.214493
v -55.253799 40.636288 226.681213
v -54.688454 6.507043 217.027832
v -58.431454 40.937923 295.830322
v -51.746143 69.691978 244.053848
v -55.269283 69.583549 280.820343
v -51.937180 58.456360 235.489136
v -49.171432 20.479233 223.675461
v -49.064915 0.127853 217.477020
v -52.391499 62.432640 284.922882
v -46.126282 69.617165 272.512573
v -49.014015 68.383240 241.321701
v -42.194580 63.878311 273.611603
v -43.181438 58.456337 244.244843
v -43.687618 49.747723 235.995316
v -45.518841 29.253176 227.342560
v -41.382469 0.024841 219.873611
v -47.843952 38.981739 292.779388
v -45.506962 69.626579 250.713684
v -37.913353 38.229191 291.409973
v -34.320171 39.997135 278.276672
v -34.626587 41.535809 247.683502
v -34.782288 28.294077 237.501236
v -33.860947 7.494123 300.676025
v -33.953629 37.814877 284.151215
v -31.367758 20.479187 241.479141
v -27.845133 8.891008 289.504517
v -29.583158 37.051533 276.013794
v -29.079908 36.050941 255.046661
v -25.269175 7.665388 246.129898
v -25.154999 0.106742 241.266174
v -27.647963 0.049486 233.399948
v -24.346018 0.055311 289.355133
v -22.583189 8.636003 280.221558
v -19.222542 0.011467 281.696899
v -19.799358 0.025948 250.459747
vt 0.000000 0.307692
vt 0.042642 0.333060
vt 0.000000 0.326923
vt 0.090227 -0.001989
vt -0.008506 0.083737
vt 0.000000 0.000000
vt 0.057469 0.108957
vt 0.023902 0.269011
vt 0.023038 0.099434
vt 0.062293 0.453096
vt 0.000000 1.000000
vt -0.000079 0.382223
vt 0.103110 0.022406
vt 0.057697 0.252032
vt 0.080396 0.320333
vt -0.002293 0.275248
vt 0.075259 0.368921
vt 0.050945 0.391666
vt 0.076946 0.117601
vt 0.121735 0.269409
vt 0.089171 0.262001
vt 0.098706 0.292403
vt 0.082684 0.438048
vt 0.198060 0.459566
vt 0.269059 0.000000
vt 0.134615 0.291324
vt 0.155114 0.286141
vt 0.153846 0.327929
vt 0.160931 0.361768
vt 0.173028 0.311264
vt 0.186429 0.384615
vt 0.094965 0.361901
vt 0.144473 0.418844
vt 0.194082 0.072409
vt 0.118203 0.076601
vt 0.111982 0.057393
vt 0.266095 0.244428
vt 0.213627 0.368194
vt 0.206690 0.307879
vt 0.219531 0.416299
vt 0.260045 0.039258
vt 0.208078 0.019816
vt 0.239115 0.077566
vt 0.225632 0.096174
vt 0.254889 0.414518
vt 0.253318 0.291385
vt 0.231431 0.329583
vt 0.240385 0.278846
vt 0.250000 0.386508
vt 0.288318 0.132380
vt 0.291121 0.269892
vt 0.278311 0.358818
vt 0.269369 0.134615
vt 0.323647 0.109909
vt 0.299673 0.404948
vt 0.309903 0.042625
vt 0.328438 0.076923
vt 0.328688 0.250091
vt 0.348046 0.288462
vt 0.324069 0.314429
vt 0.366600 0.338668
vt 0.382849 0.103824
vt 0.349276 0.117068
vt 0.365943 0.281008
vt 0.376124 0.293621
vt 0.401833 0.254924
vt 0.351490 0.230769
vt 0.377449 0.053914
vt 0.403594 0.092139
vt 1.000000 0.000000
vt 0.350485 0.000001
vt 1.000000 1.000000
vt 0.026917 0.391385
vt 0.095531 0.405139
vt 0.286493 0.313125
vt 0.306870 0.000006
vt 0.326784 -0.000152
vt 0.361871 0.060309
vn -0.1769 0.9274 -0.3296
vn -0.3455 0.6808 -0.6458
vn -0.3732 0.4001 -0.8370
vn -0.1753 0.8642 0.4717
vn -0.4650 0.8681 0.1740
vn 0.0000 1.0000 -0.0000
vn -0.8354 0.4272 0.3459
vn -0.6923 0.6430 -0.3275
vn -0.7236 0.6139 0.3154
vn -0.2464 0.9618 -0.1190
vn 0.0011 1.0000 -0.0006
vn -0.0803 0.9938 -0.0776
vn -0.3338 0.5997 0.7273
vn -0.8029 0.4974 -0.3285
vn -0.4828 0.5768 -0.6589
vn -0.4251 0.8933 -0.1461
vn -0.7894 0.3563 -0.4999
vn -0.7186 0.2982 -0.6283
vn -0.5170 0.8280 0.2170
vn -0.1637 0.9467 -0.2773
vn -0.3665 0.8446 -0.3903
vn -0.4745 0.4475 -0.7580
vn -0.0294 0.2504 -0.9677
vn 0.3284 0.3229 -0.8876
vn -0.0485 0.2415 -0.9692
vn 0.1220 0.9843 0.1276
vn -0.2244 0.7726 -0.5939
vn -0.0968 0.9456 -0.3105
vn -0.4151 0.3572 -0.8367
vn -0.2314 0.5025 -0.8331
vn -0.2522 0.7268 -0.6388
vn 0.3114 0.6945 -0.6485
vn -0.2929 0.6488 -0.7024
vn 0.0056 0.9998 -0.0177
vn 0.1669 0.7071 0.6871
vn -0.2097 0.8438 0.4940
vn -0.3243 0.4452 0.8347
vn 0.5798 0.7898 -0.2002
vn 0.3521 0.3665 -0.8612
vn 0.2861 0.4181 -0.8622
vn 0.5378 0.3183 -0.7807
vn 0.4124 0.2935 -0.8624
vn 0.3458 0.8385 0.4212
vn 0.1366 0.7008 0.7002
vn 0.5024 0.4402 0.7442
vn 0.2922 0.8747 0.3866
vn 0.3955 0.3292 -0.8574
vn 0.3956 0.8288 -0.3956
vn 0.3902 0.3832 -0.8372
vn -0.4459 0.5474 -0.7082
vn 0.3310 0.2743 -0.9029
vn 0.8351 0.4515 0.3142
vn 0.8406 0.3856 -0.3805
vn 0.7082 0.5474 0.4459
vn 0.4509 0.2898 -0.8442
vn 0.4878 0.8385 0.2429
vn 0.7657 0.5535 0.3275
vn 0.0261 0.9988 -0.0407
vn 0.0019 1.0000 -0.0027
vn 0.0012 1.0000 -0.0014
vn 0.0758 0.9971 0.0016
vn 0.7122 0.6355 0.2983
vn 0.8640 0.3740 -0.3370
vn 0.9017 0.2777 -0.3315
vn 0.8395 0.2910 -0.4588
vn 0.8182 0.2796 -0.5024
vn 0.4945 0.2800 -0.8229
vn 0.9154 0.3177 0.2473
vn 0.7764 0.5132 0.3659
vn 0.8393 0.2801 -0.4660
vn 0.8804 0.2904 -0.3750
vn 0.9188 0.2964 -0.2608
vn 0.8809 0.4415 -0.1705
vn 0.8086 0.3431 0.4780
vn 0.8820 0.3892 0.2659
vn 0.0003 1.0000 -0.0006
vn 0.0011 1.0000 -0.0072
vn 0.0012 1.0000 -0.0084
vn -0.0034 1.0000 -0.0036
vn 0.0002 1.0000 -0.0002
vn 0.0023 1.0000 0.0013
vn 0.0022 1.0000 0.0018
vn 0.0005 1.0000 -0.0025
vn -0.8898 0.2563 -0.3775
vn -0.4285 0.2310 -0.8735
vn -0.4999 0.6479 -0.5748
vn -0.9308 0.3408 -0.1319
vn -0.9051 0.4246 0.0210
vn -0.0186 0.9987 -0.0480
vn -0.0099 0.9989 -0.0469
vn -0.3583 0.8679 0.3441
vn 0.5924 0.4820 -0.6456
vn 0.6427 0.4797 -0.5974
vn 0.6647 0.3389 -0.6658
vn 0.6880 0.3056 0.6582
vn 0.7225 0.2881 0.6284
vn 0.7849 0.2824 0.5516
vn 0.8191 0.2995 0.4893
vn 0.8326 0.2882 0.4731
vn 0.8171 0.3610 0.4495
vn 0.0264 0.2244 -0.9741
s 1
f 2/1/1 20/2/2 1/3/3
f 5/4/4 3/5/5 4/6/6
f 17/7/7 14/8/8 12/9/9
f 30/10/10 11/11/11 13/12/12
f 16/13/13 12/9/9 5/4/4
f 16/13/13 17/7/7 12/9/9
f 18/14/14 14/8/8 17/7/7
f 18/14/14 26/15/15 14/8/8
f 14/8/8 26/15/15 19/16/16
f 20/2/2 23/17/17 21/18/18
f 22/19/19 18/14/14 17/7/7
f 27/20/20 25/21/21 22/19/19
f 25/21/21 27/20/20 28/22/22
f 34/23/23 41/24/24 30/10/25
f 6/25/26 16/13/13 5/4/4
f 27/20/20 29/26/27 28/22/22
f 39/27/28 29/26/27 27/20/20
f 29/26/27 31/28/29 37/29/30
f 39/27/28 36/30/31 31/28/29
f 37/29/30 40/31/32 32/32/33
f 40/31/32 38/33/34 32/32/33
f 42/34/35 24/35/36 35/36/37
f 61/37/38 39/27/28 27/20/20
f 44/38/39 40/31/32 37/29/30
f 43/39/40 37/29/30 36/30/31
f 43/39/40 44/38/39 37/29/30
f 45/40/41 38/33/42 40/31/32
f 45/40/41 41/24/24 38/33/42
f 6/25/26 60/41/43 46/42/44
f 52/43/45 48/44/46 42/34/35
f 51/45/47 41/24/24 45/40/41
f 54/46/48 49/47/49 47/48/50
f 50/49/51 45/40/41 44/38/39
f 52/43/45 55/50/52 48/44/46
f 56/51/53 54/46/48 47/48/54
f 58/52/55 50/49/51 49/47/49
f 51/45/47 45/40/41 50/49/51
f 55/50/52 61/37/38 53/53/56
f 60/41/43 63/54/57 55/50/52
f 63/54/57 61/37/38 55/50/52
f 51/45/58 59/55/59 41/24/60
f 62/56/61 67/57/62 60/41/43
f 64/58/63 61/37/38 63/54/57
f 68/59/64 65/60/65 56/51/53
f 74/61/66 59/55/67 65/60/65
f 67/57/62 76/62/68 63/54/57
f 70/63/69 64/58/63 63/54/57
f 72/64/70 68/59/64 64/58/63
f 72/64/70 73/65/71 68/59/64
f 78/66/72 72/64/70 71/67/73
f 75/68/74 77/69/75 76/62/68
f 77/69/75 78/66/72 76/62/68
f 9/70/76 75/68/77 8/71/78
f 74/61/79 10/72/80 59/55/59
f 10/72/80 73/65/81 78/66/82
f 11/11/11 30/10/10 41/24/60
f 9/70/76 78/66/82 77/69/83
f 19/16/16 12/9/9 14/8/8
f 5/4/4 12/9/9 3/5/5
f 21/18/18 1/3/3 20/2/2
f 2/1/1 19/16/16 20/2/2
f 30/10/10 21/18/18 34/23/84
f 13/12/85 21/18/18 15/73/86
f 13/12/12 15/73/86 30/10/10
f 17/7/7 35/36/37 22/19/19
f 28/22/22 18/14/14 25/21/21
f 22/19/19 25/21/21 18/14/14
f 20/2/2 26/15/15 32/32/33
f 37/29/30 28/22/22 29/26/27
f 20/2/2 32/32/33 23/17/17
f 21/18/18 23/17/17 33/74/87
f 21/18/18 33/74/87 34/23/84
f 24/35/36 27/20/20 22/19/19
f 32/32/88 33/74/87 23/17/17
f 35/36/37 24/35/36 22/19/19
f 26/15/15 28/22/22 32/32/33
f 32/32/33 38/33/34 33/74/89
f 34/23/23 38/33/42 41/24/24
f 29/26/27 39/27/28 31/28/29
f 31/28/29 36/30/31 37/29/30
f 35/36/37 46/42/44 42/34/35
f 6/25/26 46/42/44 16/13/13
f 24/35/36 48/44/46 27/20/20
f 71/67/73 76/62/68 78/66/72
f 39/27/28 43/39/90 36/30/31
f 61/37/38 43/39/90 39/27/28
f 44/38/39 45/40/41 40/31/32
f 42/34/35 46/42/44 52/43/45
f 61/37/38 47/48/91 43/39/90
f 47/48/92 49/47/49 43/39/40
f 49/47/49 44/38/39 43/39/40
f 46/42/44 60/41/43 52/43/45
f 48/44/46 53/53/56 27/20/20
f 49/47/49 50/49/51 44/38/39
f 6/25/26 62/56/61 60/41/43
f 48/44/46 55/50/52 53/53/56
f 53/53/56 61/37/38 27/20/20
f 61/37/38 56/51/53 47/48/93
f 54/46/48 57/75/94 49/47/49
f 57/75/94 58/52/55 49/47/49
f 58/52/55 51/45/47 50/49/51
f 6/25/95 7/76/96 62/56/97
f 52/43/45 60/41/43 55/50/52
f 56/51/53 57/75/94 54/46/48
f 58/52/55 59/55/67 51/45/47
f 61/37/38 64/58/63 56/51/53
f 56/51/53 65/60/65 57/75/94
f 65/60/65 58/52/55 57/75/94
f 65/60/65 59/55/67 58/52/55
f 7/76/96 66/77/98 62/56/97
f 62/56/97 69/78/99 67/57/62
f 60/41/43 67/57/62 63/54/57
f 64/58/63 68/59/64 56/51/53
f 62/56/97 66/77/98 69/78/99
f 63/54/57 76/62/68 70/63/69
f 70/63/69 71/67/73 64/58/63
f 71/67/73 72/64/70 64/58/63
f 68/59/64 73/65/71 65/60/65
f 73/65/71 74/61/66 65/60/65
f 66/77/98 8/71/100 75/68/74
f 66/77/98 75/68/74 69/78/99
f 67/57/62 69/78/99 76/62/68
f 69/78/99 75/68/74 76/62/68
f 78/66/72 73/65/71 72/64/70
f 73/65/81 10/72/80 74/61/79
f 9/70/76 77/69/83 75/68/77
f 41/24/60 59/55/59 10/72/80
f 10/72/80 11/11/11 41/24/60
f 9/70/76 10/72/80 78/66/82
f 19/16/16 3/5/5 12/9/9
f 21/18/18 13/12/85 1/3/3
f 30/10/10 15/73/86 21/18/18
f 17/7/7 16/13/13 35/36/37
f 28/22/22 26/15/15 18/14/14
f 20/2/2 19/16/16 26/15/15
f 37/29/30 32/32/33 28/22/22
f 34/23/23 33/74/101 38/33/42
f 35/36/37 16/13/13 46/42/44
f 24/35/36 42/34/35 48/44/46
f 71/67/73 70/63/69 76/62/68
